<svg width="24" height="25" viewBox="0 0 24 25" fill="none" xmlns="http://www.w3.org/2000/svg">
<path fill-rule="evenodd" clip-rule="evenodd" d="M14.4537 3.9282L19.4558 7.62293C20.4198 8.3206 20.9934 9.43612 21 10.6261V17.3145C20.938 19.4592 19.1566 21.1518 17.0116 21.104H6.99789C4.8492 21.157 3.06195 19.463 3 17.3145V10.6261C3.00659 9.43612 3.58019 8.3206 4.54421 7.62293L9.54632 3.9282C11.0068 2.85727 12.9932 2.85727 14.4537 3.9282ZM7.73684 17.0966H16.2632C16.6556 17.0966 16.9737 16.7785 16.9737 16.3861C16.9737 15.9937 16.6556 15.6756 16.2632 15.6756H7.73684C7.34443 15.6756 7.02632 15.9937 7.02632 16.3861C7.02632 16.7785 7.34443 17.0966 7.73684 17.0966Z" fill="black"/>
</svg>
