<svg width="25" height="25" viewBox="0 0 25 25" fill="none" xmlns="http://www.w3.org/2000/svg">
<path d="M19.1943 2.57617H15.3848C14.9339 2.57617 14.5685 2.94165 14.5685 3.3925C14.5685 3.84334 14.9339 4.20882 15.3848 4.20882H19.1943C19.9457 4.20882 20.5548 4.81796 20.5548 5.56937V9.37889C20.5548 9.82974 20.9203 10.1952 21.3712 10.1952C21.822 10.1952 22.1875 9.82974 22.1875 9.37889V5.56937C22.1875 3.91627 20.8474 2.57617 19.1943 2.57617Z" fill="white"/>
<path d="M5.1807 20.9435H8.99022C9.44107 20.9435 9.80655 21.309 9.80655 21.7598C9.80655 22.2107 9.44107 22.5762 8.99022 22.5762H5.1807C3.5276 22.5762 2.1875 21.2361 2.1875 19.583V15.7735C2.1875 15.4818 2.34309 15.2123 2.59566 15.0665C2.84824 14.9207 3.15942 14.9207 3.41199 15.0665C3.66456 15.2123 3.82015 15.4818 3.82015 15.7735V19.583C3.82015 20.3344 4.42929 20.9435 5.1807 20.9435Z" fill="white"/>
<path d="M20.5548 15.7746C20.5548 15.3231 20.9203 14.9571 21.3712 14.9571C21.8178 14.9571 22.1815 15.3165 22.1875 15.7637V19.5787C22.1875 21.2342 20.8474 22.5762 19.1943 22.5762H15.3848C14.9339 22.5762 14.5685 22.2102 14.5685 21.7587C14.5685 21.3072 14.9339 20.9412 15.3848 20.9412H19.1943C19.9457 20.9412 20.5548 20.3312 20.5548 19.5787V15.7746Z" fill="white"/>
<path d="M5.1807 2.57617H8.99022C9.44107 2.57617 9.80655 2.94165 9.80655 3.3925C9.80655 3.84334 9.44107 4.20882 8.99022 4.20882H5.1807C4.42929 4.20882 3.82015 4.81796 3.82015 5.56937V9.37889C3.82015 9.82974 3.45467 10.1952 3.00383 10.1952C2.55298 10.1952 2.1875 9.82974 2.1875 9.37889V5.56937C2.1875 3.91627 3.5276 2.57617 5.1807 2.57617Z" fill="white"/>
</svg>
